<svg width="101" height="101" viewBox="0 0 101 101" fill="none" xmlns="http://www.w3.org/2000/svg">
<line x1="1" y1="0.5" x2="101" y2="0.5" stroke="white" stroke-opacity="0.1"/>
<line x1="1" y1="5.5" x2="101" y2="5.5" stroke="white" stroke-opacity="0.1"/>
<line x1="1" y1="10.5" x2="101" y2="10.5" stroke="white" stroke-opacity="0.1"/>
<line x1="1" y1="15.5" x2="101" y2="15.5" stroke="white" stroke-opacity="0.1"/>
<line x1="1" y1="20.5" x2="101" y2="20.5" stroke="white" stroke-opacity="0.1"/>
<line x1="1" y1="25.5" x2="101" y2="25.5" stroke="white" stroke-opacity="0.1"/>
<line x1="1" y1="30.5" x2="101" y2="30.5" stroke="white" stroke-opacity="0.1"/>
<line x1="1" y1="35.5" x2="101" y2="35.5" stroke="white" stroke-opacity="0.1"/>
<line x1="1" y1="40.5" x2="101" y2="40.5" stroke="white" stroke-opacity="0.1"/>
<line x1="1" y1="45.5" x2="101" y2="45.5" stroke="white" stroke-opacity="0.1"/>
<line x1="1" y1="50.5" x2="101" y2="50.5" stroke="white" stroke-opacity="0.1"/>
<line x1="1" y1="55.5" x2="101" y2="55.5" stroke="white" stroke-opacity="0.1"/>
<line x1="1" y1="60.5" x2="101" y2="60.5" stroke="white" stroke-opacity="0.1"/>
<line x1="1" y1="65.5" x2="101" y2="65.5" stroke="white" stroke-opacity="0.1"/>
<line x1="1" y1="70.5" x2="101" y2="70.5" stroke="white" stroke-opacity="0.1"/>
<line x1="1" y1="75.5" x2="101" y2="75.5" stroke="white" stroke-opacity="0.1"/>
<line x1="1" y1="80.5" x2="101" y2="80.5" stroke="white" stroke-opacity="0.1"/>
<line x1="1" y1="85.5" x2="101" y2="85.5" stroke="white" stroke-opacity="0.1"/>
<line x1="1" y1="90.5" x2="101" y2="90.5" stroke="white" stroke-opacity="0.1"/>
<line x1="1" y1="95.5" x2="101" y2="95.5" stroke="white" stroke-opacity="0.1"/>
<line x1="0.5" y1="101" x2="0.5" y2="1" stroke="white" stroke-opacity="0.1"/>
<line x1="5.5" y1="101" x2="5.5" y2="1" stroke="white" stroke-opacity="0.1"/>
<line x1="10.5" y1="101" x2="10.5" y2="1" stroke="white" stroke-opacity="0.1"/>
<line x1="15.5" y1="101" x2="15.5" y2="1" stroke="white" stroke-opacity="0.1"/>
<line x1="20.5" y1="101" x2="20.5" y2="1" stroke="white" stroke-opacity="0.1"/>
<line x1="25.5" y1="101" x2="25.5" y2="1" stroke="white" stroke-opacity="0.1"/>
<line x1="30.5" y1="101" x2="30.5" y2="1" stroke="white" stroke-opacity="0.1"/>
<line x1="35.5" y1="101" x2="35.5" y2="1" stroke="white" stroke-opacity="0.1"/>
<line x1="40.5" y1="101" x2="40.5" y2="1" stroke="white" stroke-opacity="0.1"/>
<line x1="45.5" y1="101" x2="45.5" y2="1" stroke="white" stroke-opacity="0.1"/>
<line x1="50.5" y1="101" x2="50.5" y2="1" stroke="white" stroke-opacity="0.1"/>
<line x1="55.5" y1="101" x2="55.5" y2="1" stroke="white" stroke-opacity="0.1"/>
<line x1="60.5" y1="101" x2="60.5" y2="1" stroke="white" stroke-opacity="0.1"/>
<line x1="65.5" y1="101" x2="65.5" y2="1" stroke="white" stroke-opacity="0.1"/>
<line x1="70.5" y1="101" x2="70.5" y2="1" stroke="white" stroke-opacity="0.1"/>
<line x1="75.5" y1="101" x2="75.5" y2="1" stroke="white" stroke-opacity="0.1"/>
<line x1="80.5" y1="101" x2="80.5" y2="1" stroke="white" stroke-opacity="0.1"/>
<line x1="85.5" y1="101" x2="85.5" y2="1" stroke="white" stroke-opacity="0.1"/>
<line x1="90.5" y1="101" x2="90.5" y2="1" stroke="white" stroke-opacity="0.1"/>
<line x1="95.5" y1="101" x2="95.5" y2="1" stroke="white" stroke-opacity="0.1"/>
</svg>
