<svg width="90" height="26" viewBox="0 0 90 26" fill="none" xmlns="http://www.w3.org/2000/svg">
<g clip-path="url(#clip0_7_9)">
<path d="M24.1578 2.8071H14.6561M24.1578 4.99979H16.8488M24.1578 7.19248H19.0415M24.1578 11.5779H14.6561M24.1578 9.38517H16.8488" stroke="#707070" stroke-width="0.730897" stroke-linecap="round" stroke-linejoin="round"/>
</g>
<path d="M27.3036 9.58786H26.0391L27.9659 4.00646H29.4866L31.4106 9.58786H30.1461L28.748 5.2819H28.7044L27.3036 9.58786ZM27.2246 7.394H30.2115V8.31515H27.2246V7.394ZM33.2625 4.00646V9.58786H32.0824V4.00646H33.2625Z" fill="#EE6123"/>
<path d="M32.7792 3.14447L32.9122 0.184707H42.0243L42.1573 3.14447H41.1929L40.8271 1.0161H38.283C38.272 1.72556 38.2609 2.44056 38.2498 3.1611C38.2498 3.88164 38.2498 4.60773 38.2498 5.33936V6.15413C38.2498 6.86358 38.2498 7.57858 38.2498 8.29913C38.2609 9.00858 38.272 9.72358 38.283 10.4441L39.9791 10.627V11.3088H34.9575V10.627L36.6535 10.4441C36.6757 9.73467 36.6868 9.02521 36.6868 8.31575C36.6868 7.59521 36.6868 6.87467 36.6868 6.15413V5.33936C36.6868 4.61882 36.6868 3.89827 36.6868 3.17773C36.6868 2.45719 36.6757 1.73664 36.6535 1.0161H34.1094L33.7436 3.14447H32.7792ZM45.7856 3.95924C45.4752 3.95924 45.1593 4.04792 44.8378 4.22529C44.5274 4.40265 44.2558 4.68533 44.023 5.07331C43.8013 5.4613 43.6572 5.97676 43.5907 6.61971H46.617C47.0161 6.61971 47.2766 6.53657 47.3985 6.37029C47.5315 6.20401 47.598 5.99893 47.598 5.75506C47.598 5.43358 47.5149 5.13982 47.3486 4.87378C47.1934 4.59664 46.9773 4.37494 46.7001 4.20866C46.4341 4.04238 46.1293 3.95924 45.7856 3.95924ZM45.769 11.5249C44.6494 11.5249 43.7515 11.1647 43.0753 10.4441C42.3991 9.7125 42.061 8.70928 42.061 7.43447C42.061 6.58091 42.2328 5.8382 42.5764 5.20633C42.9311 4.57447 43.3967 4.08118 43.9732 3.72645C44.5607 3.37172 45.1981 3.19436 45.8854 3.19436C46.4618 3.19436 46.9828 3.32184 47.4484 3.5768C47.914 3.83176 48.2853 4.19757 48.5625 4.67424C48.8396 5.13982 48.9782 5.71071 48.9782 6.38692C48.9782 6.57537 48.9671 6.75273 48.9449 6.91901C48.9227 7.0742 48.895 7.20723 48.8618 7.31808H43.5575C43.5796 8.33792 43.8346 9.11389 44.3224 9.64599C44.8101 10.1781 45.453 10.4441 46.2512 10.4441C46.7833 10.4441 47.2267 10.3388 47.5814 10.1282C47.9361 9.90649 48.2632 9.62382 48.5625 9.28017L48.9615 9.5961C48.6511 10.1836 48.2299 10.6547 47.6978 11.0095C47.1657 11.3531 46.5228 11.5249 45.769 11.5249ZM55.0435 4.05901V3.41052H58.1529V4.05901L57.1718 4.24192L54.794 7.16843L57.1053 10.4774L58.369 10.7102V11.3088H54.3118V10.7102L55.4924 10.494L53.8629 8.11622L52.0338 10.494L53.2809 10.7102V11.3088H49.9553V10.7102L51.0195 10.5106L53.4472 7.50099L51.219 4.24192L50.0717 4.05901V3.41052H53.7797V4.05901L52.7654 4.24192L54.3617 6.5532L56.1409 4.27517L55.0435 4.05901ZM61.9501 11.5249C61.3737 11.5249 60.9137 11.3697 60.57 11.0594C60.2264 10.749 60.0546 10.2723 60.0546 9.62936C60.0546 9.41874 60.0546 9.21366 60.0546 9.01413C60.0656 8.80351 60.0712 8.53746 60.0712 8.21599V4.2918H58.6911V3.56017L60.171 3.37726L60.6033 1.14913H61.601L61.5012 3.41052H63.746V4.2918H61.4846V9.44645C61.4846 9.86769 61.5677 10.1781 61.734 10.3776C61.9003 10.5661 62.122 10.6603 62.3991 10.6603C62.5875 10.6603 62.7649 10.6215 62.9312 10.5439C63.1086 10.4663 63.3025 10.3554 63.5132 10.2113L63.9122 10.6437C63.4577 11.2312 62.8037 11.5249 61.9501 11.5249Z" fill="#202020"/>
<g clip-path="url(#clip1_7_9)">
<path d="M65.8422 2.8071H75.3438M65.8422 4.99979H73.1512M65.8422 7.19248H70.9585M65.8422 11.5779H75.3438M65.8422 9.38517H73.1512" stroke="#707070" stroke-width="0.730897" stroke-linecap="round" stroke-linejoin="round"/>
</g>
<path d="M5.90911 16.9134C5.88488 16.6106 5.77133 16.3744 5.56845 16.2049C5.36859 16.0353 5.06427 15.9505 4.65547 15.9505C4.39506 15.9505 4.18158 15.9823 4.01503 16.0459C3.85151 16.1064 3.73039 16.1897 3.65166 16.2957C3.57293 16.4017 3.53205 16.5228 3.52902 16.6591C3.52297 16.7711 3.54265 16.8725 3.58807 16.9634C3.63652 17.0512 3.71222 17.1315 3.81518 17.2041C3.91813 17.2738 4.04985 17.3374 4.21034 17.3949C4.37083 17.4524 4.5616 17.5039 4.78266 17.5493L5.54574 17.7128C6.06051 17.8219 6.5011 17.9657 6.8675 18.1444C7.2339 18.323 7.53368 18.5335 7.76685 18.7757C8.00001 19.0149 8.1711 19.2844 8.28011 19.5842C8.39215 19.884 8.44969 20.211 8.45271 20.5653C8.44969 21.177 8.29677 21.6948 7.99396 22.1187C7.69115 22.5427 7.25813 22.8652 6.6949 23.0862C6.1347 23.3073 5.46095 23.4178 4.67364 23.4178C3.86514 23.4178 3.15959 23.2982 2.557 23.059C1.95744 22.8197 1.49111 22.4518 1.15802 21.9552C0.827955 21.4556 0.66141 20.8166 0.658382 20.0384H3.05664C3.07178 20.3231 3.14294 20.5623 3.27012 20.7561C3.3973 20.9499 3.57596 21.0967 3.80609 21.1967C4.03926 21.2966 4.31633 21.3466 4.63731 21.3466C4.90681 21.3466 5.1324 21.3133 5.31409 21.2466C5.49577 21.18 5.63355 21.0877 5.72742 20.9696C5.82129 20.8515 5.86974 20.7167 5.87277 20.5653C5.86974 20.423 5.82281 20.2988 5.73196 20.1929C5.64415 20.0838 5.4988 19.9869 5.29592 19.9022C5.09304 19.8143 4.81899 19.7326 4.47379 19.6569L3.54719 19.457C2.72355 19.2784 2.07402 18.9801 1.59861 18.5622C1.12622 18.1413 0.891545 17.5675 0.894574 16.8408C0.891545 16.2503 1.04901 15.734 1.36696 15.2919C1.68794 14.8467 2.13155 14.5 2.69781 14.2517C3.26709 14.0034 3.91965 13.8793 4.65547 13.8793C5.40644 13.8793 6.05597 14.0049 6.60406 14.2563C7.15214 14.5076 7.57456 14.8619 7.87132 15.3191C8.1711 15.7733 8.32251 16.3048 8.32553 16.9134H5.90911ZM14.9185 14.0065H17.4439V19.9658C17.4439 20.6743 17.2743 21.2875 16.9352 21.8053C16.5991 22.3201 16.1297 22.7183 15.5271 22.9999C14.9245 23.2785 14.225 23.4178 13.4286 23.4178C12.6262 23.4178 11.9237 23.2785 11.3211 22.9999C10.7185 22.7183 10.2491 22.3201 9.91301 21.8053C9.57992 21.2875 9.41338 20.6743 9.41338 19.9658V14.0065H11.9388V19.7477C11.9388 20.0354 12.0024 20.2928 12.1296 20.5199C12.2568 20.744 12.4324 20.9196 12.6565 21.0468C12.8836 21.174 13.141 21.2376 13.4286 21.2376C13.7193 21.2376 13.9767 21.174 14.2008 21.0468C14.4249 20.9196 14.6005 20.744 14.7277 20.5199C14.8549 20.2928 14.9185 20.0354 14.9185 19.7477V14.0065ZM18.6442 14.0065H21.7873L23.9494 19.2753H24.0584L26.2205 14.0065H29.3636V23.3088H26.8927V17.9309H26.82L24.7488 23.2361H23.259L21.1878 17.8945H21.1151V23.3088H18.6442V14.0065ZM30.5605 14.0065H33.7037L35.8657 19.2753H35.9747L38.1368 14.0065H41.28V23.3088H38.809V17.9309H38.7364L36.6652 23.2361H35.1753L33.1041 17.8945H33.0314V23.3088H30.5605V14.0065ZM44.8933 23.3088H42.168L45.2385 14.0065H48.6905L51.761 23.3088H49.0357L47.0008 16.5682H46.9281L44.8933 23.3088ZM44.3845 19.6387H49.5081V21.5283H44.3845V19.6387ZM52.6569 23.3088V14.0065H56.6722C57.3626 14.0065 57.9667 14.1321 58.4845 14.3834C59.0023 14.6348 59.4051 14.9966 59.6927 15.469C59.9804 15.9414 60.1242 16.5077 60.1242 17.1678C60.1242 17.834 59.9758 18.3957 59.6791 18.8529C59.3854 19.3102 58.972 19.6554 58.4391 19.8885C57.9092 20.1217 57.2899 20.2383 56.5813 20.2383H54.1831V18.2761H56.0726C56.3694 18.2761 56.6222 18.2397 56.8312 18.1671C57.0431 18.0914 57.2051 17.9717 57.3172 17.8082C57.4322 17.6447 57.4898 17.4312 57.4898 17.1678C57.4898 16.9013 57.4322 16.6848 57.3172 16.5183C57.2051 16.3487 57.0431 16.2245 56.8312 16.1458C56.6222 16.064 56.3694 16.0232 56.0726 16.0232H55.1824V23.3088H52.6569ZM58.1075 19.0392L60.4331 23.3088H57.6896L55.4186 19.0392H58.1075ZM63.7262 14.0065V23.3088H61.2007V14.0065H63.7262ZM64.9593 23.3088V21.9098L69.3561 16.0413H64.9775V14.0065H72.572V15.4054L68.1752 21.2739H72.5538V23.3088H64.9593ZM73.804 23.3088V14.0065H80.5083V16.0413H76.3295V17.6402H80.1631V19.6751H76.3295V21.2739H80.4901V23.3088H73.804ZM81.7608 23.3088V14.0065H85.776C86.4664 14.0065 87.0705 14.1321 87.5884 14.3834C88.1062 14.6348 88.5089 14.9966 88.7966 15.469C89.0842 15.9414 89.2281 16.5077 89.2281 17.1678C89.2281 17.834 89.0797 18.3957 88.7829 18.8529C88.4892 19.3102 88.0759 19.6554 87.5429 19.8885C87.013 20.1217 86.3938 20.2383 85.6852 20.2383H83.2869V18.2761H85.1765C85.4732 18.2761 85.7261 18.2397 85.935 18.1671C86.147 18.0914 86.309 17.9717 86.421 17.8082C86.5361 17.6447 86.5936 17.4312 86.5936 17.1678C86.5936 16.9013 86.5361 16.6848 86.421 16.5183C86.309 16.3487 86.147 16.2245 85.935 16.1458C85.7261 16.064 85.4732 16.0232 85.1765 16.0232H84.2862V23.3088H81.7608ZM87.2114 19.0392L89.5369 23.3088H86.7935L84.5224 19.0392H87.2114Z" fill="#202020"/>
<defs>
<clipPath id="clip0_7_9">
<rect width="10.2326" height="10.2326" fill="white" transform="translate(14.2907 2.07623)"/>
</clipPath>
<clipPath id="clip1_7_9">
<rect width="10.2326" height="10.2326" fill="white" transform="matrix(-1 0 0 1 75.7093 2.07623)"/>
</clipPath>
</defs>
</svg>
