<svg width="50" height="23" viewBox="0 0 50 23" fill="none" xmlns="http://www.w3.org/2000/svg">
<path d="M2.06823 15H0.331526L2.97775 7.33455H5.06629L7.70878 15H5.97207L4.05197 9.08622H3.99208L2.06823 15ZM1.95969 11.987H6.0619V13.2521H1.95969V11.987ZM10.2521 7.33455V15H8.6314V7.33455H10.2521Z" fill="#38BDF8"/>
<path d="M8.91215 4.52206L9.08287 0.723539H20.7772L20.9479 4.52206H19.7102L19.2407 1.79054H15.9757C15.9615 2.70105 15.9472 3.61867 15.933 4.5434C15.933 5.46813 15.933 6.39998 15.933 7.33894V8.3846C15.933 9.29511 15.933 10.2127 15.933 11.1375C15.9472 12.048 15.9615 12.9656 15.9757 13.8903L18.1524 14.1251V15H11.7077V14.1251L13.8844 13.8903C13.9128 12.9798 13.927 12.0693 13.927 11.1588C13.927 10.2341 13.927 9.30933 13.927 8.3846V7.33894C13.927 6.41421 13.927 5.48947 13.927 4.56474C13.927 3.64001 13.9128 2.71527 13.8844 1.79054H10.6193L10.1499 4.52206H8.91215ZM25.6044 5.56772C25.206 5.56772 24.8006 5.68153 24.388 5.90916C23.9896 6.13679 23.6411 6.49957 23.3423 6.9975C23.0578 7.49543 22.8728 8.15697 22.7875 8.98212H26.6714C27.1835 8.98212 27.5178 8.87542 27.6743 8.66202C27.8451 8.44862 27.9304 8.18543 27.9304 7.87244C27.9304 7.45987 27.8237 7.08286 27.6103 6.74142C27.4111 6.38575 27.1337 6.10122 26.7781 5.88782C26.4366 5.67442 26.0454 5.56772 25.6044 5.56772ZM25.583 15.2774C24.1461 15.2774 22.9938 14.8151 22.1259 13.8903C21.2581 12.9514 20.8242 11.6638 20.8242 10.0278C20.8242 8.93233 21.0447 7.97914 21.4857 7.16822C21.941 6.3573 22.5385 5.72421 23.2783 5.26896C24.0323 4.81371 24.8503 4.58608 25.7324 4.58608C26.4722 4.58608 27.1408 4.74969 27.7384 5.0769C28.3359 5.40411 28.8125 5.87359 29.1681 6.48534C29.5238 7.08286 29.7016 7.81553 29.7016 8.68336C29.7016 8.92521 29.6874 9.15284 29.659 9.36624C29.6305 9.56541 29.5949 9.73613 29.5523 9.8784H22.7448C22.7733 11.1873 23.1005 12.1831 23.7264 12.866C24.3524 13.5489 25.1776 13.8903 26.2019 13.8903C26.8848 13.8903 27.4538 13.7552 27.9091 13.4849C28.3643 13.2003 28.784 12.8375 29.1681 12.3965L29.6803 12.802C29.282 13.556 28.7413 14.1606 28.0585 14.6159C27.3756 15.0569 26.5504 15.2774 25.583 15.2774ZM37.4857 5.69576V4.8635H41.4763V5.69576L40.2173 5.9305L37.1656 9.68634L40.1319 13.933L41.7537 14.2318V15H36.5468V14.2318L38.0619 13.9543L35.9706 10.9027L33.6232 13.9543L35.2237 14.2318V15H30.9557V14.2318L32.3215 13.9757L35.4371 10.1131L32.5775 5.9305L31.1051 5.69576V4.8635H35.8639V5.69576L34.5622 5.9305L36.6108 8.89676L38.8942 5.97318L37.4857 5.69576ZM46.3497 15.2774C45.6099 15.2774 45.0195 15.0782 44.5785 14.6799C44.1374 14.2816 43.9169 13.6698 43.9169 12.8447C43.9169 12.5744 43.9169 12.3112 43.9169 12.0551C43.9311 11.7848 43.9383 11.4433 43.9383 11.0308V5.99452H42.167V5.05556L44.0663 4.82082L44.6211 1.96126H45.9015L45.7735 4.8635H48.6544V5.99452H45.7522V12.6099C45.7522 13.1505 45.8589 13.5489 46.0723 13.805C46.2857 14.0468 46.5702 14.1677 46.9259 14.1677C47.1677 14.1677 47.3953 14.1179 47.6087 14.0184C47.8364 13.9188 48.0853 13.7765 48.3556 13.5916L48.8678 14.1464C48.2845 14.9004 47.4451 15.2774 46.3497 15.2774Z" fill="#202020"/>
<path d="M3.59237 17.7914C3.55612 17.8494 3.51745 17.8929 3.47637 17.9219C3.4377 17.9509 3.38695 17.9654 3.32412 17.9654C3.26853 17.9654 3.20812 17.9485 3.14287 17.9146C3.08003 17.8784 3.00753 17.8385 2.92537 17.795C2.84562 17.7515 2.75378 17.7128 2.64987 17.679C2.54595 17.6427 2.42753 17.6246 2.29462 17.6246C2.06503 17.6246 1.89345 17.6742 1.77987 17.7732C1.6687 17.8699 1.61312 18.0016 1.61312 18.1684C1.61312 18.2747 1.64695 18.3629 1.71462 18.433C1.78228 18.5031 1.87049 18.5635 1.97924 18.6142C2.09041 18.665 2.21607 18.7121 2.35624 18.7556C2.49882 18.7967 2.64382 18.8438 2.79124 18.897C2.93866 18.9477 3.08245 19.0082 3.22262 19.0782C3.3652 19.1483 3.49087 19.2377 3.59962 19.3465C3.71078 19.4552 3.8002 19.5882 3.86787 19.7452C3.93553 19.8999 3.96937 20.0872 3.96937 20.3071C3.96937 20.5512 3.92708 20.7796 3.84249 20.9922C3.75791 21.2049 3.63466 21.391 3.47274 21.5505C3.31324 21.7076 3.11507 21.832 2.87824 21.9239C2.64382 22.0133 2.37678 22.058 2.07712 22.058C1.91278 22.058 1.74482 22.0411 1.57324 22.0073C1.40407 21.9734 1.23974 21.9263 1.08024 21.8659C0.920741 21.803 0.770908 21.7293 0.630741 21.6447C0.490575 21.5602 0.368533 21.4659 0.264616 21.362L0.627116 20.7892C0.656116 20.7482 0.693575 20.7143 0.739491 20.6877C0.787825 20.6587 0.839783 20.6442 0.895366 20.6442C0.967866 20.6442 1.04037 20.6672 1.11287 20.7131C1.18778 20.759 1.27116 20.8098 1.36299 20.8654C1.45724 20.921 1.56478 20.9717 1.68562 21.0176C1.80645 21.0635 1.94903 21.0865 2.11337 21.0865C2.3357 21.0865 2.50849 21.0382 2.63174 20.9415C2.75499 20.8424 2.81662 20.6865 2.81662 20.4739C2.81662 20.3506 2.78278 20.2503 2.71512 20.173C2.64745 20.0957 2.55803 20.0316 2.44687 19.9809C2.33812 19.9301 2.21366 19.8854 2.07349 19.8467C1.93332 19.8081 1.78953 19.7658 1.64212 19.7199C1.4947 19.6715 1.35091 19.6135 1.21074 19.5459C1.07057 19.4758 0.944908 19.3852 0.833741 19.274C0.724991 19.1604 0.636783 19.0202 0.569116 18.8535C0.50145 18.6843 0.467616 18.4765 0.467616 18.23C0.467616 18.0318 0.507491 17.8385 0.587241 17.65C0.666991 17.4615 0.7842 17.2935 0.938867 17.1461C1.09353 16.9987 1.28324 16.8815 1.50799 16.7945C1.73274 16.7051 1.99012 16.6604 2.28012 16.6604C2.44203 16.6604 2.59912 16.6737 2.75137 16.7002C2.90603 16.7244 3.05224 16.7619 3.18999 16.8126C3.32774 16.861 3.45582 16.9202 3.57424 16.9902C3.69507 17.0579 3.80262 17.1352 3.89687 17.2222L3.59237 17.7914ZM6.89265 21.0321C7.05698 21.0321 7.20319 21.0055 7.33127 20.9524C7.46177 20.8968 7.57173 20.8182 7.66115 20.7167C7.75056 20.6152 7.81823 20.492 7.86415 20.347C7.91248 20.1996 7.93665 20.0328 7.93665 19.8467V16.7184H9.1619V19.8467C9.1619 20.1706 9.10873 20.4678 9.0024 20.7385C8.89848 21.0092 8.74865 21.2424 8.5529 21.4381C8.35715 21.6339 8.1191 21.7861 7.83877 21.8949C7.55844 22.0036 7.24306 22.058 6.89265 22.058C6.53981 22.058 6.22323 22.0036 5.9429 21.8949C5.66256 21.7861 5.42452 21.6339 5.22877 21.4381C5.03302 21.2424 4.88319 21.0092 4.77927 20.7385C4.67535 20.4678 4.6234 20.1706 4.6234 19.8467V16.7184H5.84865V19.8431C5.84865 20.0292 5.8716 20.196 5.91752 20.3434C5.96585 20.4884 6.03473 20.6128 6.12415 20.7167C6.21356 20.8182 6.32231 20.8968 6.4504 20.9524C6.5809 21.0055 6.72831 21.0321 6.89265 21.0321ZM16.0568 16.7184V22H14.9766V18.9622C14.9766 18.8922 14.9778 18.816 14.9802 18.7339C14.985 18.6517 14.9923 18.5683 15.0019 18.4837L13.5991 21.1989C13.5556 21.2835 13.4964 21.3475 13.4214 21.391C13.3489 21.4345 13.2656 21.4562 13.1713 21.4562H13.0046C12.9103 21.4562 12.8257 21.4345 12.7508 21.391C12.6783 21.3475 12.6203 21.2835 12.5768 21.1989L11.1739 18.4765C11.1812 18.5635 11.1872 18.6493 11.1921 18.7339C11.1969 18.816 11.1993 18.8922 11.1993 18.9622V22H10.1191V16.7184H11.0543C11.1075 16.7184 11.1534 16.7196 11.1921 16.722C11.2331 16.7244 11.2694 16.7317 11.3008 16.7437C11.3322 16.7558 11.36 16.7752 11.3842 16.8017C11.4108 16.8259 11.4361 16.861 11.4603 16.9069L12.8197 19.5857C12.868 19.6776 12.9139 19.773 12.9574 19.8721C13.0034 19.9712 13.0469 20.0727 13.0879 20.1766C13.129 20.0703 13.1713 19.9664 13.2148 19.8649C13.2607 19.7634 13.3091 19.6667 13.3598 19.5749L14.7156 16.9069C14.7397 16.861 14.7639 16.8259 14.7881 16.8017C14.8146 16.7752 14.8436 16.7558 14.8751 16.7437C14.9065 16.7317 14.9415 16.7244 14.9802 16.722C15.0213 16.7196 15.0684 16.7184 15.1216 16.7184H16.0568ZM23.0165 16.7184V22H21.9363V18.9622C21.9363 18.8922 21.9375 18.816 21.9399 18.7339C21.9447 18.6517 21.952 18.5683 21.9617 18.4837L20.5588 21.1989C20.5153 21.2835 20.4561 21.3475 20.3812 21.391C20.3087 21.4345 20.2253 21.4562 20.131 21.4562H19.9643C19.87 21.4562 19.7854 21.4345 19.7105 21.391C19.638 21.3475 19.58 21.2835 19.5365 21.1989L18.1337 18.4765C18.1409 18.5635 18.1469 18.6493 18.1518 18.7339C18.1566 18.816 18.159 18.8922 18.159 18.9622V22H17.0788V16.7184H18.014C18.0672 16.7184 18.1131 16.7196 18.1518 16.722C18.1929 16.7244 18.2291 16.7317 18.2605 16.7437C18.2919 16.7558 18.3197 16.7752 18.3439 16.8017C18.3705 16.8259 18.3959 16.861 18.42 16.9069L19.7794 19.5857C19.8277 19.6776 19.8737 19.773 19.9172 19.8721C19.9631 19.9712 20.0066 20.0727 20.0477 20.1766C20.0887 20.0703 20.131 19.9664 20.1745 19.8649C20.2204 19.7634 20.2688 19.6667 20.3195 19.5749L21.6753 16.9069C21.6994 16.861 21.7236 16.8259 21.7478 16.8017C21.7744 16.7752 21.8034 16.7558 21.8348 16.7437C21.8662 16.7317 21.9012 16.7244 21.9399 16.722C21.981 16.7196 22.0281 16.7184 22.0813 16.7184H23.0165ZM26.8297 19.9809L26.3404 18.5345C26.3041 18.4427 26.2655 18.3351 26.2244 18.2119C26.1833 18.0862 26.1422 17.9509 26.1011 17.8059C26.0649 17.9533 26.0262 18.0898 25.9851 18.2155C25.944 18.3412 25.9054 18.4499 25.8691 18.5417L25.3834 19.9809H26.8297ZM28.7764 22H27.8266C27.7203 22 27.6345 21.9758 27.5692 21.9275C27.504 21.8767 27.4545 21.8127 27.4206 21.7354L27.1089 20.8146H25.1006L24.7889 21.7354C24.7623 21.803 24.714 21.8647 24.6439 21.9202C24.5762 21.9734 24.4916 22 24.3901 22H23.4331L25.4776 16.7184H26.7319L28.7764 22ZM30.911 19.2015C31.0778 19.2015 31.2192 19.181 31.3352 19.1399C31.4536 19.0964 31.5503 19.0372 31.6252 18.9622C31.7001 18.8873 31.7545 18.8003 31.7883 18.7012C31.8221 18.5997 31.839 18.491 31.839 18.375C31.839 18.143 31.7629 17.9617 31.6107 17.8312C31.4608 17.7007 31.2276 17.6355 30.911 17.6355H30.418V19.2015H30.911ZM33.5138 22H32.4045C32.1991 22 32.0517 21.9227 31.9623 21.768L31.085 20.2346C31.044 20.1694 30.998 20.1222 30.9473 20.0932C30.8965 20.0618 30.824 20.0461 30.7298 20.0461H30.418V22H29.1928V16.7184H30.911C31.2929 16.7184 31.6179 16.7582 31.8862 16.838C32.1568 16.9153 32.3768 17.0241 32.5459 17.1642C32.7175 17.3044 32.842 17.47 32.9193 17.6609C32.9966 17.8518 33.0353 18.0596 33.0353 18.2844C33.0353 18.456 33.0123 18.6179 32.9664 18.7701C32.9205 18.9224 32.8528 19.0637 32.7634 19.1942C32.674 19.3223 32.5628 19.4371 32.4299 19.5386C32.2994 19.6401 32.1484 19.7235 31.9768 19.7887C32.0565 19.8298 32.1315 19.8818 32.2015 19.9446C32.2716 20.005 32.3345 20.0775 32.39 20.1621L33.5138 22ZM35.1902 22H33.9577V16.7184H35.1902V22ZM39.9538 17.1606C39.9538 17.2235 39.9429 17.2851 39.9212 17.3455C39.9018 17.4059 39.874 17.4627 39.8378 17.5159L37.3583 21.0575H39.874V22H35.7995V21.5287C35.7995 21.4732 35.8092 21.4188 35.8285 21.3656C35.8479 21.31 35.8744 21.2593 35.9083 21.2134L38.395 17.6609H36.0025V16.7184H39.9538V17.1606ZM41.8596 17.6609V18.8934H43.5199V19.7996H41.8596V21.0575H44.0274V22H40.6271V16.7184H44.0274V17.6609H41.8596ZM46.5014 19.2015C46.6681 19.2015 46.8095 19.181 46.9255 19.1399C47.0439 19.0964 47.1406 19.0372 47.2155 18.9622C47.2904 18.8873 47.3448 18.8003 47.3786 18.7012C47.4125 18.5997 47.4294 18.491 47.4294 18.375C47.4294 18.143 47.3533 17.9617 47.201 17.8312C47.0512 17.7007 46.818 17.6355 46.5014 17.6355H46.0084V19.2015H46.5014ZM49.1041 22H47.9949C47.7895 22 47.642 21.9227 47.5526 21.768L46.6754 20.2346C46.6343 20.1694 46.5884 20.1222 46.5376 20.0932C46.4869 20.0618 46.4144 20.0461 46.3201 20.0461H46.0084V22H44.7831V16.7184H46.5014C46.8832 16.7184 47.2083 16.7582 47.4765 16.838C47.7472 16.9153 47.9671 17.0241 48.1363 17.1642C48.3078 17.3044 48.4323 17.47 48.5096 17.6609C48.587 17.8518 48.6256 18.0596 48.6256 18.2844C48.6256 18.456 48.6027 18.6179 48.5568 18.7701C48.5108 18.9224 48.4432 19.0637 48.3538 19.1942C48.2643 19.3223 48.1532 19.4371 48.0203 19.5386C47.8898 19.6401 47.7387 19.7235 47.5671 19.7887C47.6469 19.8298 47.7218 19.8818 47.7919 19.9446C47.862 20.005 47.9248 20.0775 47.9804 20.1621L49.1041 22Z" fill="#202020"/>
</svg>
